<?xml version="1.0" encoding="UTF-8"?>
<svg width="150px" height="107px" viewBox="0 0 150 107" version="1.1" xmlns="http://www.w3.org/2000/svg" xmlns:xlink="http://www.w3.org/1999/xlink">
    <!-- Generator: Sketch 50.2 (55047) - http://www.bohemiancoding.com/sketch -->
    <title>Group 2</title>
    <desc>Created with Sketch.</desc>
    <defs></defs>
    <g id="Page-1" stroke="none" stroke-width="1" fill="none" fill-rule="evenodd" stroke-linecap="round" stroke-linejoin="round">
        <g id="Inicio-Copy" transform="translate(-276.000000, -1871.000000)" stroke-width="10">
            <g id="Group-2" transform="translate(281.000000, 1876.000000)">
                <path d="M134.885584,96.314489 C138.183464,88.1907282 140,79.3075014 140,70 C140,31.3400675 108.659932,0 70,0 C31.3400675,0 0,31.3400675 0,70 C0,79.3075014 1.81653584,88.1907282 5.11441622,96.314489" id="Oval-4" stroke="#FFFFFF"></path>
                <path d="M134.885584,96.314489 C138.183464,88.1907282 140,79.3075014 140,70 C140,31.3400675 108.659932,0 70,0 C31.3400675,0 0,31.3400675 0,70 C0,79.3075014 1.81653584,88.1907282 5.11441622,96.314489" id="Oval-4" stroke="#FF2A1E" stroke-dasharray="211,1000" transform="translate(70.000000, 48.157245) scale(-1, 1) translate(-70.000000, -48.157245) "></path>
            </g>
        </g>
    </g>
</svg>