<?xml version="1.0" encoding="UTF-8"?>
<svg width="132px" height="137px" viewBox="0 0 132 137" version="1.1" xmlns="http://www.w3.org/2000/svg" xmlns:xlink="http://www.w3.org/1999/xlink">
    <!-- Generator: Sketch 50.2 (55047) - http://www.bohemiancoding.com/sketch -->
    <title>Group 9</title>
    <desc>Created with Sketch.</desc>
    <defs></defs>
    <g id="Page-1" stroke="none" stroke-width="1" fill="none" fill-rule="evenodd" opacity="0.54761096">
        <g id="Inicio" transform="translate(-161.000000, -951.000000)">
            <g id="Group-8" transform="translate(149.000000, 951.000000)">
                <g id="Page-1" transform="translate(12.000000, 0.111111)">
                    <g id="Group-9">
                        <path d="M24.4444444,108.888889 C24.4444444,110.115304 23.4502648,111.111111 22.2232709,111.111111 C20.9941796,111.111111 20,110.115304 20,108.888889 C20,107.662474 20.9941796,106.666667 22.2232709,106.666667 C23.4502648,106.666667 24.4444444,107.662474 24.4444444,108.888889" id="Fill-1" fill="#7488CF"></path>
                        <path d="M126.666667,77.7767291 C126.666667,79.0037229 125.67039,80 124.443396,80 C123.216402,80 122.222222,79.0037229 122.222222,77.7767291 C122.222222,76.5497352 123.216402,75.5555556 124.443396,75.5555556 C125.67039,75.5555556 126.666667,76.5497352 126.666667,77.7767291" id="Fill-3" fill="#7488CF"></path>
                        <path d="M93.21617,58.9294567 L89.0060522,58.9294567 C87.673409,58.9294567 86.5917684,57.849557 86.5917684,56.5190585 L86.5917684,54.0750749 C86.5917684,52.7471599 87.6759966,51.6672602 89.0060522,51.6672602 L93.6690099,51.6672602 C94.7506505,51.6672602 95.6304538,52.543064 95.6304538,53.6229638 C95.6304538,55.1343067 96.8544155,56.358882 98.3707825,56.358882 C99.8845618,56.358882 101.111111,55.1343067 101.111111,53.6229638 C101.111111,49.587549 97.8713647,46.2961799 93.8527336,46.1980072 L93.8527336,43.8496128 C93.8527336,42.3356864 92.6235966,41.1111111 91.1124049,41.1111111 C89.5986257,41.1111111 88.3694887,42.3356864 88.3694887,43.8496128 L88.3694887,46.2212586 C84.3146303,46.5467787 81.1111111,49.9440709 81.1111111,54.0750749 L81.1111111,56.5190585 C81.1111111,60.8670758 84.6510257,64.4038766 89.0060522,64.4038766 L93.21617,64.4038766 C94.5462256,64.4038766 95.6304538,65.4863599 95.6304538,66.8116913 L95.6304538,69.2582584 C95.6304538,70.5861734 94.5462256,71.6660732 93.21617,71.6660732 L88.5506246,71.6660732 C87.4715717,71.6660732 86.5917684,70.7902693 86.5917684,69.7103696 C86.5917684,68.1990267 85.3678067,66.9744514 83.8514397,66.9744514 C82.3376605,66.9744514 81.1111111,68.1990267 81.1111111,69.7103696 C81.1111111,73.7457844 84.3482699,77.0397369 88.3694887,77.1353261 L88.3694887,79.486304 C88.3694887,80.9976469 89.5986257,82.2222222 91.1124049,82.2222222 C92.6235966,82.2222222 93.8527336,80.9976469 93.8527336,79.486304 L93.8527336,77.1120747 C97.9075919,76.7865547 101.111111,73.3892624 101.111111,69.2582584 L101.111111,66.8116913 C101.111111,62.4662575 97.5711965,58.9294567 93.21617,58.9294567" id="Fill-5" fill="#7387CC"></path>
                        <path d="M34.4235298,115.009923 C34.3807212,115.02752 34.3404308,115.04763 34.3001404,115.067741 L5.33386155,129.675503 L5.33386155,118.881194 L12.8354303,115.206 C14.157459,114.554923 14.7038975,112.961166 14.0542148,111.641415 C13.4045321,110.321663 11.8080251,109.776166 10.4834782,110.424729 L5.33386155,112.948597 L5.33386155,90.510309 L20.6291044,83.8210547 C21.0471172,83.6375464 21.4198034,83.7280437 21.6061465,83.7959166 C21.7899715,83.8688171 22.1248854,84.0523254 22.3112285,84.4721321 L22.923139,85.852215 L22.923139,85.8547288 L22.9256571,85.8572426 L35.0757306,113.328183 C35.3602816,113.971718 35.0681762,114.725862 34.4235298,115.009923 Z M78.0580322,7.69025171 L82.875253,5.83505829 L88.281721,7.99442299 C88.8885951,8.23574896 89.5634593,8.24831802 90.1753697,8.02710255 L96.2441111,5.84762736 L100.834698,7.92655006 L95.9922961,16.1944784 L82.7845996,16.1944784 L78.0580322,7.69025171 Z M83.882513,27.0114124 L94.8566105,27.0114124 L94.8566105,21.5187327 L83.882513,21.5187327 L83.882513,27.0114124 Z M131.007171,90.5957786 C129.90674,88.114646 127.907329,86.2066625 125.37407,85.2262757 C122.840811,84.2484028 120.073364,84.3087343 117.58795,85.4072702 C117.575359,85.4148117 117.56025,85.4198393 117.54766,85.4223531 L100.744045,93.1598671 C99.4069075,93.7782649 98.8226967,95.3594528 99.4396434,96.6942871 C100.05659,98.0291214 101.640506,98.6148396 102.977644,97.9964418 L119.761114,90.2714969 C120.939608,89.7586792 122.246528,89.7310272 123.447685,90.1935687 C124.653879,90.6586239 125.600703,91.568624 126.126997,92.7501157 C126.648254,93.9265798 126.675953,95.2413036 126.210096,96.4429058 C125.74172,97.6470219 124.835186,98.5972429 123.651655,99.117602 L89.2663176,114.273376 C83.8422226,116.664011 77.685346,116.528265 72.3770859,113.89379 L59.7913724,107.649481 C53.0553213,104.311138 45.2490564,104.135171 38.3719889,107.164315 L38.2133455,107.234702 L28.8810818,86.1413034 L41.8571085,80.4223806 C48.0567936,77.6898667 54.9741516,77.4686512 61.3349983,79.801469 L86.6474417,89.0824637 C88.9062222,89.9120217 90.1149341,92.4358892 89.3343077,94.7108892 C88.5410904,97.0286241 86.0027953,98.275475 83.6760247,97.4886517 L64.1024451,90.8823532 C62.7048719,90.4097565 61.1914638,91.1588726 60.7205698,92.5490107 C60.2471576,93.9441765 60.9975662,95.4549776 62.3926213,95.9275743 L81.9662009,102.536387 C83.0036787,102.885807 84.0562654,103.051718 85.0937431,103.051718 C89.1706279,103.051718 92.9931795,100.490144 94.3831983,96.4328506 C96.0930221,91.4429333 93.4489647,85.9024912 88.4856911,84.0824912 L63.1732478,74.8014965 C61.4709784,74.178071 59.7359731,73.7054743 57.9833408,73.3837064 L57.9833408,58.662822 C57.9833408,44.1480703 69.8136092,32.3381805 84.3559252,32.3381805 L94.0986474,32.3381805 C108.638445,32.3381805 120.466196,44.1480703 120.466196,58.662822 L120.466196,65.6059714 C120.466196,67.0740377 121.662317,68.2680985 123.135434,68.2680985 C124.608552,68.2680985 125.804673,67.0740377 125.804673,65.6059714 L125.804673,58.662822 C125.804673,43.2908603 114.77014,30.4452799 100.19257,27.6021583 L100.19257,19.5805835 L106.928621,8.06732354 C107.313898,7.41875999 107.399515,6.63696439 107.170364,5.9180141 C106.941212,5.1990638 106.417437,4.61083174 105.7325,4.29911903 L97.4654139,0.548511202 C96.8333582,0.264450421 96.1131673,0.234284674 95.4584483,0.468069211 L89.3217169,2.67268253 L83.8799949,0.500748769 C83.2554937,0.25188136 82.5604843,0.246853736 81.9309468,0.488179708 L73.2785836,3.82149471 C72.5609108,4.09801405 71.9943271,4.67367705 71.7324395,5.39765497 C71.4680337,6.12163289 71.5335056,6.92353898 71.9061918,7.59724066 L78.5440351,19.5453901 L78.5440351,27.5468544 C63.8279668,30.2793683 52.647381,43.1928217 52.647381,58.662822 L52.647381,72.8734025 C48.2406186,72.8331815 43.8388925,73.7255848 39.7015721,75.5480987 L26.6323738,81.3097563 C25.8819652,80.1911099 24.8167877,79.3263585 23.5325313,78.8311375 C21.8856612,78.1926292 20.0902203,78.235364 18.4811224,78.944259 L1.59692702,86.3298393 C0.627439284,86.7571874 0.000419946298,87.7149498 0.000419946298,88.770751 L0.000419946298,134.004288 C0.000419946298,134.929371 0.481386587,135.786581 1.26956752,136.271747 C1.69513486,136.535697 2.18113781,136.666415 2.66714075,136.666415 C3.07759919,136.666415 3.49057578,136.57089 3.86829827,136.379841 L36.6495744,119.849011 C38.2309725,119.132575 39.4447208,117.848017 40.0742583,116.226608 C40.5879609,114.904343 40.6609872,113.484039 40.2983736,112.139149 L40.5275253,112.036083 C45.9516203,109.645448 52.1059788,109.786221 57.4142389,112.420696 L70.0024705,118.662492 C76.7360034,122.000835 84.5422683,122.179315 91.4193358,119.147658 L125.80971,103.98937 C128.295124,102.893348 130.203881,100.897381 131.18596,98.3659722 C132.168038,95.8370771 132.105085,93.0769113 131.007171,90.5957786 Z" id="Fill-7" fill="#7487CB"></path>
                    </g>
                </g>
            </g>
        </g>
    </g>
</svg>