<?xml version="1.0" encoding="UTF-8"?>
<svg width="137px" height="132px" viewBox="0 0 137 132" version="1.1" xmlns="http://www.w3.org/2000/svg" xmlns:xlink="http://www.w3.org/1999/xlink">
    <!-- Generator: Sketch 50.2 (55047) - http://www.bohemiancoding.com/sketch -->
    <title>Page 1</title>
    <desc>Created with Sketch.</desc>
    <defs></defs>
    <g id="Page-1" stroke="none" stroke-width="1" fill="none" fill-rule="evenodd" opacity="0.55">
        <g id="Inicio" transform="translate(-1049.000000, -950.000000)" fill="#B3BEE3">
            <g id="Page-1" transform="translate(1049.000000, 950.000000)">
                <path d="M99.7802595,89.6445496 L83.5296735,73.6126449 L83.5045022,73.5874771 C82.9054255,72.9960332 82.0949099,72.7468717 81.3171169,72.8374759 L69.7081171,72.7116368 C68.9882182,72.7066032 68.2985248,72.9859661 67.7925818,73.4918394 L58.0663946,83.216687 C57.4622836,83.8207148 56.6643537,84.1478966 55.813564,84.1478966 C54.9602572,84.1478966 54.1598101,83.8207148 53.5582163,83.216687 C52.9541053,82.615176 52.6243613,81.8148392 52.6243613,80.9641667 C52.6243613,80.1109774 52.9541053,79.3106406 53.5582163,78.7066128 L67.8605443,64.4087712 L80.7708999,64.4087712 C81.4782132,64.4087712 82.1578381,64.1268916 82.6562297,63.6260519 L86.2104161,60.072355 L108.142163,81.9985643 L99.7802595,89.6445496 Z M97.8496214,100.01621 C97.2127878,100.655473 96.3645152,101.007823 95.4608658,101.007823 C94.5597336,101.007823 93.7089439,100.655473 93.0721102,100.01621 L87.5293918,94.476772 C86.4873003,93.4348241 84.7983066,93.4348241 83.7562151,94.476772 C82.7141236,95.51872 82.7141236,97.2074811 83.7562151,98.249429 L89.2989336,103.788867 L89.3165535,103.806485 C90.690906,105.180648 90.7362144,107.380316 89.4222729,108.812365 C88.7602679,109.532165 87.8616528,109.947434 86.8824896,109.980152 C85.9083606,110.017904 84.9770228,109.665555 84.2697095,108.991057 L78.9308785,103.944908 C77.8610986,102.928128 76.174622,102.975947 75.1602189,104.045579 C74.1458159,105.115212 74.1936413,106.803973 75.2634212,107.818236 L81.0729554,113.317406 C81.649378,113.861031 81.9715705,114.595932 81.9841562,115.388718 C81.9942247,116.181505 81.6896521,116.923955 81.1308494,117.485198 C79.9981412,118.620267 78.1505684,118.620267 77.0178603,117.485198 L74.3245321,114.792241 C73.2849577,113.750293 71.5934469,113.750293 70.5513554,114.792241 C70.0303097,115.313215 69.7710454,115.995263 69.7710454,116.677311 C69.7710454,117.361876 70.0303097,118.041407 70.5513554,118.562381 L73.3529202,121.36356 C73.8739659,121.884534 74.1584015,122.576649 74.1584015,123.314066 C74.1584015,124.051483 73.8739659,124.741082 73.3529202,125.262056 C72.8293573,125.78303 72.1396639,126.07246 71.4021451,126.07246 C70.6646262,126.07246 69.9724157,125.78303 69.45137,125.262056 L66.1866534,122.000306 C66.8662783,120.726814 67.2539162,119.269597 67.2539162,117.729326 C67.2539162,112.713378 63.1812011,108.631157 58.1721141,108.613539 L58.1721141,108.600956 C58.1721141,103.574941 54.0817791,99.4851693 49.052555,99.4851693 L49.0198323,99.4851693 L49.0198323,99.4826525 C49.0198323,94.4566378 44.9294974,90.3668662 39.9027904,90.3668662 C38.354756,90.3668662 36.8998553,90.7544507 35.6211537,91.4390155 L27.2844218,83.100915 L50.8674052,59.5186628 L54.97536,63.6260519 C55.4762687,64.1268916 56.1533765,64.4087712 56.8606898,64.4087712 L60.314191,64.4087712 L49.7850396,74.9364725 C48.1740769,76.5446966 47.2880475,78.6864785 47.2880475,80.9641667 C47.2880475,83.2393381 48.1740769,85.38112 49.7850396,86.989344 C51.3934852,88.6000848 53.5355621,89.4859923 55.813564,89.4859923 C58.0890488,89.4859923 60.2311257,88.5975681 61.8395713,86.989344 L70.7703456,78.0572829 L80.5468754,78.1655045 L97.8370358,95.2242564 C98.4814209,95.8610024 98.8388532,96.7116749 98.8413703,97.6177166 C98.8438875,98.5212415 98.4914894,99.3744308 97.8496214,100.01621 Z M60.8478224,120.36188 C60.8352367,120.371947 60.8226511,120.384531 60.8100655,120.397115 C60.7974798,120.409699 60.7874113,120.422283 60.7723085,120.434867 C60.0901665,121.099298 59.1613458,121.509533 58.1393914,121.509533 C56.0501742,121.509533 54.3536291,119.813222 54.3536291,117.729326 C54.3536291,116.762881 54.72113,115.884524 55.3176896,115.212543 C55.4284433,115.109355 55.5341627,115.006167 55.637365,114.897945 C56.3044042,114.309018 57.177848,113.946602 58.1368743,113.946602 C60.2235744,113.946602 61.9201194,115.642913 61.9201194,117.729326 C61.9201194,118.751139 61.5098274,119.679832 60.8478224,120.36188 Z M51.8717397,111.115221 C51.760986,111.218409 51.6552666,111.324114 51.5520643,111.432336 C50.8850251,112.02378 50.0115812,112.38368 49.052555,112.38368 C46.9683721,112.38368 45.271827,110.687368 45.271827,108.600956 C45.271827,106.514543 46.9683721,104.818231 49.052555,104.818231 C51.1392551,104.818231 52.8358002,106.514543 52.8358002,108.600956 C52.8358002,109.5674 52.4682993,110.448274 51.8717397,111.115221 Z M39.9027904,103.265377 C37.8160903,103.265377 36.1195453,101.569065 36.1195453,99.4826525 C36.1195453,97.3987565 37.8160903,95.7024451 39.9027904,95.7024451 C41.9894905,95.7024451 43.6860356,97.3987565 43.6860356,99.4826525 C43.6860356,101.569065 41.9894905,103.265377 39.9027904,103.265377 Z M135.752553,65.6570954 L110.480576,40.3885988 C109.441001,39.3466509 107.749491,39.3466509 106.707399,40.3885988 C105.667825,41.4305468 105.667825,43.1193079 106.707399,44.1612558 L130.094046,67.5446823 L116.418483,81.2133281 C116.00064,81.631114 115.321015,81.631114 114.903172,81.2133281 L87.9019269,54.2183188 C87.4815663,53.8005329 87.4815663,53.1184848 87.9019269,52.6981822 L97.0768628,43.5245099 C98.1189543,42.4825619 98.1189543,40.7938008 97.0768628,39.7518529 C96.0372884,38.7099049 94.3482947,38.7099049 93.3062033,39.7518529 L84.1287502,48.9255252 C82.2283177,50.825696 81.7777516,53.6319085 82.7695005,55.9699994 L79.6658802,59.0731923 L57.9657095,59.0731923 L54.0515736,55.1570787 C54.2026013,54.6084201 54.2806323,54.0396272 54.2806323,53.4532169 C54.2806323,51.739288 53.6161102,50.1335808 52.402854,48.9230084 L43.4745967,39.993464 C42.4325053,38.951516 40.7435116,38.951516 39.7039372,39.993464 C38.6618457,41.0379287 38.6618457,42.724173 39.7039372,43.766121 L48.6321944,52.6931486 C48.9065615,52.9674779 48.9468356,53.2896261 48.9468356,53.4532169 C48.9468356,53.6193246 48.9065615,53.9364392 48.6321944,54.2132852 L47.8871242,54.9557361 L21.6233983,81.2108114 C21.6133298,81.2183617 21.6057784,81.2284288 21.598227,81.2359792 C21.3314113,81.4851407 21.0318729,81.5228924 20.8707767,81.5228924 C20.7046461,81.5228924 20.3849707,81.4826239 20.1131208,81.2082946 L6.44007502,67.5396487 L30.1388463,43.8416245 C31.1834549,42.7996765 31.1834549,41.1109154 30.1388463,40.0689675 C29.099272,39.0295363 27.4102783,39.0295363 26.3656697,40.0689675 L0.781568612,65.6520618 C-0.260522871,66.6940098 -0.260522871,68.3827708 0.781568612,69.4247188 L16.3399441,84.9809516 C17.5909573,86.2317925 19.2296084,86.8559546 20.8707767,86.8559546 C21.6259154,86.8559546 22.378537,86.7175315 23.0934017,86.4532694 L31.8504942,95.2116725 C31.1733864,96.4876813 30.7857485,97.9398648 30.7857485,99.4826525 C30.7857485,104.511184 34.8735663,108.598439 39.9027904,108.598439 L39.9355131,108.598439 L39.9355131,108.600956 C39.9355131,113.614386 44.0082281,117.696608 49.0198323,117.714225 L49.0198323,117.726809 C49.0198323,122.752824 53.1076501,126.845112 58.1368743,126.845112 C59.6849087,126.845112 61.1398094,126.457528 62.418511,125.772963 L65.6781933,129.034713 C67.2086078,130.5624 69.2399311,131.405522 71.4021451,131.405522 C73.564359,131.405522 75.5981994,130.5624 77.1235797,129.034713 C78.570929,127.587563 79.4040988,125.687392 79.487164,123.656349 C81.4605933,123.558194 83.4012999,122.757857 84.904026,121.257855 C86.4923345,119.669765 87.3481585,117.558185 87.3179529,115.315731 L87.3179529,115.300631 C89.638746,115.157174 91.7732716,114.137877 93.3515116,112.421431 C94.9398201,110.689885 95.7251644,108.510351 95.717613,106.338368 C97.9477895,106.272932 100.039524,105.37444 101.622798,103.788867 C103.276552,102.135341 104.185236,99.9381901 104.175167,97.5975824 C104.170133,96.2209023 103.84794,94.8970747 103.246346,93.701603 L111.995887,85.7057849 C113.090839,86.4708868 114.377092,86.8609881 115.663345,86.8609881 C117.301996,86.8609881 118.943164,86.2368261 120.19166,84.9859851 L135.752553,69.4297524 C136.794644,68.3878044 136.794644,66.6990433 135.752553,65.6570954 Z" id="Fill-1"></path>
                <path d="M119.643345,69.4248866 C119.643345,70.8946876 118.450226,72.0901593 116.980223,72.0901593 C115.510219,72.0901593 114.319617,70.8946876 114.319617,69.4248866 C114.319617,67.9550856 115.510219,66.7646475 116.980223,66.7646475 C118.450226,66.7646475 119.643345,67.9550856 119.643345,69.4248866" id="Fill-4"></path>
                <path d="M22.1045895,69.4274034 C22.1045895,70.8972044 20.9139874,72.0901593 19.4414668,72.0901593 C17.9714633,72.0901593 16.7808612,70.8972044 16.7808612,69.4274034 C16.7808612,67.9576024 17.9714633,66.7646475 19.4414668,66.7646475 C20.9139874,66.7646475 22.1045895,67.9576024 22.1045895,69.4274034" id="Fill-6"></path>
                <path d="M37.8366469,35.8703031 C37.8366469,37.3401041 36.6460448,38.533059 35.1760413,38.533059 C33.7060379,38.533059 32.5129187,37.3401041 32.5129187,35.8703031 C32.5129187,34.3979853 33.7060379,33.2075472 35.1760413,33.2075472 C36.6460448,33.2075472 37.8366469,34.3979853 37.8366469,35.8703031" id="Fill-8"></path>
                <path d="M104.54057,36.180119 C104.54057,37.64992 103.347451,38.8428749 101.877448,38.8428749 C100.407444,38.8428749 99.2168421,37.64992 99.2168421,36.180119 C99.2168421,34.7078012 100.407444,33.5173631 101.877448,33.5173631 C103.347451,33.5173631 104.54057,34.7078012 104.54057,36.180119" id="Fill-10"></path>
                <polygon id="Fill-4" points="50.6484848 32.8905286 61.4424242 44 61.4424242 25.7458138 57.4924093 25.7358491"></polygon>
                <path d="M49.2854953,25.6998248 C49.2251076,25.6998248 49.0066032,25.6968598 48.7128331,25.6642453 L48.6938707,25.6624663 C48.6752001,25.6612803 48.6471942,25.6574259 48.6191883,25.6535714 L48.5897238,25.649717 L48.5818471,25.6488275 C48.5812637,25.6488275 48.5803885,25.648531 48.579805,25.648531 L48.5754291,25.647938 C48.1451302,25.6031671 47.7393364,25.4961321 47.3740928,25.3324663 C47.3670914,25.3292049 47.358923,25.3268329 47.3519215,25.3235714 L47.3102044,25.3045957 C47.275197,25.2888814 47.2422317,25.2722776 47.2083913,25.2556739 C47.1908876,25.247372 47.1751343,25.2405526 47.1573389,25.2316577 L47.1555885,25.2307682 C47.1541299,25.2301752 47.1532547,25.2295822 47.1520878,25.2286927 C47.1512126,25.2280997 47.1500457,25.2278032 47.1491705,25.2272102 C47.1482953,25.2269137 47.1477118,25.2266173 47.1471284,25.2260243 C47.1436276,25.2242453 47.1404186,25.2221698 47.1372096,25.2203908 C46.966257,25.1308491 46.8209764,25.0380458 46.6952416,24.9375337 C46.6841559,24.9289353 46.668986,24.9158895 46.6541079,24.9028437 C46.6471064,24.8975067 46.6412719,24.8915768 46.6342704,24.8859434 C46.5718406,24.8367251 46.513495,24.7860243 46.4574832,24.735027 C46.4379374,24.7175337 46.4189751,24.6997439 46.4000127,24.6816577 C46.3483769,24.6324394 46.2987831,24.582628 46.2523983,24.5328167 C46.2445217,24.5248113 46.2363533,24.5165094 46.2287684,24.508504 C46.1762573,24.4506873 46.1278304,24.3931671 46.0817374,24.3356469 C46.0686096,24.3196361 46.0563571,24.3036253 46.0438127,24.2876146 C46.0055964,24.2383962 45.9697138,24.1897709 45.9361651,24.142035 C45.9314974,24.1355121 45.9259546,24.1286927 45.9215787,24.1221698 C45.7054082,24.6695013 45.5233698,25.4774528 45.8276422,26.3023046 C46.2821546,27.5333558 48.8872865,30.8093396 50.1854765,32.3718733 L50.7493869,31.775027 L56.2289156,25.9734906 C54.4966342,25.9147844 50.9255906,25.7893666 49.2854953,25.6998248" id="Fill-6"></path>
                <polygon id="Fill-9" points="76.3878788 44 87.1818182 32.8905286 80.3377836 25.7358491 76.3878788 25.7458138"></polygon>
                <path d="M90.3414527,25.3086028 L90.3172483,25.3172721 C89.4488789,25.6595593 88.4750263,25.6520858 88.4364786,25.6505911 L88.3737265,25.6532816 C87.982273,25.6936386 87.5579493,25.7286147 87.1153977,25.7591067 C87.0681842,25.762395 87.0206719,25.7653844 86.9731596,25.7686728 C86.8870996,25.7743526 86.800442,25.7797336 86.7134855,25.7851145 C86.5981412,25.7922891 86.4819004,25.7991647 86.3647632,25.8054425 C86.3241237,25.807834 86.2834843,25.8102255 86.2422472,25.8123181 C86.1469238,25.8174001 86.0516004,25.8224821 85.9553805,25.8272652 C85.9473124,25.8275641 85.9392443,25.828162 85.9308773,25.8284609 C84.2222276,25.9133601 82.4412636,25.9435532 81.369697,25.9540161 L86.6543193,31.4614037 L87.533745,32.3773585 C88.8634916,30.8022391 91.5316506,27.4989425 91.9969125,26.258039 C92.3073859,25.4290759 92.1286919,24.624925 91.9102549,24.0754717 C91.906669,24.0808526 91.9024856,24.0862336 91.8988997,24.0916145 C91.8788788,24.1209107 91.8567662,24.1505059 91.8352512,24.1803999 C91.8149315,24.2085004 91.7952094,24.2366008 91.7733956,24.2650002 C91.7500876,24.2951932 91.7243892,24.3253863 91.6995872,24.3555793 C91.6762792,24.3836797 91.6541666,24.4117802 91.6296634,24.4398806 C91.6024708,24.4706715 91.5722901,24.5008646 91.5433046,24.5316555 C91.5176061,24.5588591 91.4931029,24.5860627 91.4656115,24.6129674 C91.4336378,24.6440572 91.3992736,24.6739513 91.365507,24.7044433 C91.337418,24.7298533 91.3105242,24.7555622 91.2812399,24.7800753 C91.2438875,24.8111652 91.203248,24.8407603 91.163505,24.8709533 C91.1339219,24.893075 91.1061317,24.9163924 91.0750545,24.9379161 C91.0308292,24.9690059 90.9827192,24.9974053 90.9355058,25.0267015 C90.9056238,25.0452359 90.8775348,25.064966 90.8461588,25.0829024 C90.791176,25.1142912 90.7317109,25.1423916 90.6725446,25.17109 C90.6462485,25.1839444 90.6214465,25.1982936 90.5942539,25.2105502 C90.5177562,25.2446294 90.4367761,25.2748225 90.3543019,25.3032218 C90.3495208,25.3050155 90.345935,25.3068091 90.3414527,25.3086028" id="Fill-11"></path>
                <path d="M89.9919886,24.1141878 C90.0394798,24.0922122 90.0911006,24.0717017 90.1341671,24.047968 C90.22207,23.9999148 90.3011235,23.9489314 90.370148,23.894725 C90.4669001,23.819129 90.5524432,23.7397239 90.6320867,23.6600257 C90.6571597,23.6348271 90.6792829,23.6099214 90.702881,23.5847228 C90.7547968,23.5284653 90.8043527,23.4727938 90.8485991,23.4177083 C90.8692475,23.3919236 90.8893058,23.366725 90.9081843,23.3415263 C90.9521357,23.2835108 90.9916625,23.2269603 91.0270597,23.1730468 C91.0376788,23.1566384 91.0500678,23.1393509 91.059802,23.1235285 C91.1034585,23.0543787 91.1412154,22.989331 91.170713,22.9330735 C91.171008,22.9321945 91.171303,22.9316084 91.1718929,22.9307294 L69.0203695,0.259253274 L46.6942202,22.9310224 C46.6977599,22.9377616 46.6998247,22.9424497 46.7036594,22.9494819 C46.7302073,22.9987072 46.7611798,23.0529137 46.7974618,23.1112222 C46.8092609,23.1305607 46.8240097,23.1513643 46.8369886,23.1712888 C46.869141,23.2199281 46.9042432,23.2706184 46.942885,23.3224808 C46.9617635,23.3482655 46.9818219,23.3740502 47.0027652,23.4001279 C47.0440618,23.4525762 47.090668,23.5059037 47.1393391,23.5592311 C47.1620523,23.5841367 47.1829956,23.6087494 47.2071836,23.633362 C47.2826975,23.7110091 47.3638159,23.7880701 47.4555535,23.8624941 C47.5679393,23.9483454 47.6847499,24.0239414 47.8039202,24.0869381 C47.8095247,24.0898681 47.8145393,24.0922122 47.8198489,24.0951423 C47.8694049,24.1191689 47.9118814,24.1388004 47.954063,24.1569669 L47.9570128,24.158139 C47.9929999,24.1733754 48.0331166,24.1865607 48.0714635,24.2009181 C48.1104003,24.2152755 48.1478623,24.2305119 48.188864,24.2439902 C48.2304556,24.2577616 48.274997,24.2694819 48.3186535,24.2820812 C48.3552305,24.2923365 48.3900377,24.3037638 48.4280896,24.3137261 C48.4744008,24.3254464 48.5230719,24.3351156 48.571153,24.3456639 C48.6092049,24.3538681 48.6460769,24.3635374 48.6853087,24.3708626 C48.7735066,24.3881501 48.8637692,24.4028004 48.9560968,24.4151068 L48.9670109,24.4165718 L48.9670109,24.4162788 L49.0702525,24.4285851 C49.1950274,24.4376684 49.3805673,24.4488027 49.6017994,24.460523 L57.4166006,24.7558748 L68.8923499,13.3142144 L80.4952338,24.7544098 L88.1690365,24.4637461 C88.939219,24.3837549 89.5114726,24.2882344 89.8447956,24.1821656 C89.8981862,24.161069 89.9433176,24.1370424 89.9919886,24.1141878" id="Fill-1"></path>
            </g>
        </g>
    </g>
</svg>