<?xml version="1.0" encoding="UTF-8"?>
<svg width="131px" height="115px" viewBox="0 0 131 115" version="1.1" xmlns="http://www.w3.org/2000/svg" xmlns:xlink="http://www.w3.org/1999/xlink">
    <!-- Generator: Sketch 50.2 (55047) - http://www.bohemiancoding.com/sketch -->
    <title>Group 7</title>
    <desc>Created with Sketch.</desc>
    <defs></defs>
    <g id="Page-1" stroke="none" stroke-width="1" fill="none" fill-rule="evenodd" opacity="0.671875">
        <g id="Inicio" transform="translate(-609.000000, -963.000000)" fill="#F1F2F7">
            <g id="Page-1" transform="translate(608.000000, 963.000000)">
                <g id="Group-7">
                    <path d="M118.333333,41.5555556 C118.333333,42.9046122 117.237429,44 115.887735,44 C114.538042,44 113.444444,42.9046122 113.444444,41.5555556 C113.444444,40.206499 114.538042,39.1111111 115.887735,39.1111111 C117.237429,39.1111111 118.333333,40.206499 118.333333,41.5555556" id="Fill-1"></path>
                    <path d="M52.3333333,56.2233758 C52.3333333,57.5730691 51.2392194,58.6666667 49.8888889,58.6666667 C48.5362501,58.6666667 47.4444444,57.5730691 47.4444444,56.2233758 C47.4444444,54.8713754 48.5362501,53.7777778 49.8888889,53.7777778 C51.2392194,53.7777778 52.3333333,54.8713754 52.3333333,56.2233758" id="Fill-3"></path>
                    <path d="M126.09688,80.6125069 C126.09688,81.979206 124.97848,83.0945856 123.60568,83.0945856 L54.89368,83.0945856 C53.52328,83.0945856 52.40488,81.979206 52.40488,80.6125069 L52.40488,65.7750856 C52.40488,64.3748773 51.26488,63.2403495 49.86088,63.2403495 C48.45688,63.2403495 47.31928,64.3748773 47.31928,65.7750856 L47.31928,80.6125069 C47.31928,84.7772292 50.71768,88.1664514 54.89368,88.1664514 L80.34568,88.1664514 L73.05688,109.815826 L37.04248,109.815826 L37.04248,48.632706 L62.96728,48.632706 C70.25128,48.632706 76.17928,42.7207153 76.17928,35.4539931 C76.17928,34.0537847 75.04168,32.9192569 73.63768,32.9192569 L52.40488,32.9192569 L52.40488,20.1498356 C52.40488,18.7807431 53.52328,17.6653634 54.89368,17.6653634 L123.60568,17.6653634 C124.97848,17.6653634 126.09688,18.7807431 126.09688,20.1498356 L126.09688,80.6125069 Z M101.77048,109.815826 L78.42328,109.815826 L85.70968,88.1664514 L94.48408,88.1664514 L101.77048,109.815826 Z M31.95688,46.0955764 L31.95688,109.815826 L26.66728,109.815826 L26.66728,81.3090208 C26.66728,79.9088125 25.52968,78.7742847 24.12568,78.7742847 C22.72168,78.7742847 21.58168,79.9088125 21.58168,81.3090208 L21.58168,109.815826 L16.29448,109.815826 L16.29448,55.8587384 C16.29448,54.4585301 15.15448,53.3240023 13.75048,53.3240023 C12.34648,53.3240023 11.20888,54.4585301 11.20888,55.8587384 L11.20888,80.0572106 C8.29048,79.4995208 6.08488,77.0365903 6.08488,74.0877755 L6.08488,55.2029144 C6.08488,45.7102199 14.10328,37.9911227 23.96008,37.9911227 L70.68568,37.9911227 C69.61768,41.2223727 66.56008,43.5608403 62.96728,43.5608403 L34.49848,43.5608403 C33.09448,43.5608403 31.95688,44.6953681 31.95688,46.0955764 Z M23.34568,19.0224884 C27.18568,19.0224884 30.31048,22.1388495 30.31048,25.9708727 C30.31048,29.8028958 27.18568,32.9192569 23.34568,32.9192569 C19.50328,32.9192569 16.37608,29.8028958 16.37608,25.9708727 C16.37608,22.1388495 19.50328,19.0224884 23.34568,19.0224884 Z M89.24968,5.4344838 C93.73288,5.4344838 97.51528,8.47425231 98.63608,12.5958912 L79.86568,12.5958912 C80.98648,8.47425231 84.76888,5.4344838 89.24968,5.4344838 Z M123.60568,12.5958912 L103.83448,12.5958912 C102.62488,5.65708102 96.54568,0.365011574 89.24968,0.365011574 C81.95368,0.365011574 75.87688,5.65708102 74.66728,12.5958912 L54.89368,12.5958912 C50.71768,12.5958912 47.31928,15.9827199 47.31928,20.1498356 L47.31928,32.9192569 L33.16888,32.9192569 C34.56808,30.9541782 35.39608,28.5582662 35.39608,25.9708727 C35.39608,19.3432199 29.98888,13.9506227 23.34568,13.9506227 C16.70008,13.9506227 11.29288,19.3432199 11.29288,25.9708727 C11.29288,29.3912106 12.73528,32.4788495 15.04168,34.668919 C6.79768,38.0557477 0.99928,45.983081 0.99928,55.2029144 L0.99928,74.0877755 C0.99928,79.8298264 5.47528,84.5713866 11.20888,85.1769468 L11.20888,109.815826 L4.84648,109.815826 C3.44488,109.815826 2.30488,110.952748 2.30488,112.352956 C2.30488,113.753164 3.44488,114.887692 4.84648,114.887692 L74.86888,114.887692 L74.88808,114.887692 L74.90728,114.887692 L105.28648,114.887692 L105.30568,114.887692 L105.32488,114.887692 L126.24088,114.887692 C127.64488,114.887692 128.78248,113.753164 128.78248,112.352956 C128.78248,110.952748 127.64488,109.815826 126.24088,109.815826 L107.13448,109.815826 L99.84808,88.1664514 L123.60568,88.1664514 C127.78168,88.1664514 131.18008,84.7772292 131.18008,80.6125069 L131.18008,20.1498356 C131.18248,15.9827199 127.78408,12.5958912 123.60568,12.5958912 Z" id="Fill-5"></path>
                    <path d="M110.269891,47.1875603 C109.298765,46.1967391 107.718626,46.1967391 106.7475,47.1875603 L96.0768632,58.0483009 L92.1853022,54.0874094 C91.2118242,53.0965882 89.6363886,53.0965882 88.6629105,54.0874094 L74.907242,68.0857504 L71.0650604,64.1775113 C70.5971325,63.701247 69.9622555,63.435592 69.3038645,63.435592 C68.6431222,63.435592 68.0082452,63.701247 67.5426687,64.1775113 L60.3967752,71.4507132 C59.4232971,72.4391411 59.4232971,74.0450373 60.3967752,75.0358585 C60.8811629,75.5312691 61.5207427,75.7777778 62.1579711,75.7777778 C62.7951995,75.7777778 63.4324279,75.5312691 63.9191669,75.0358585 L69.3038645,69.5552292 L73.1460461,73.4658617 C74.1171728,74.4542896 75.6949598,74.4542896 76.6684378,73.4658617 L90.4241064,59.4651273 L94.3156673,63.4260188 C95.286794,64.41684 96.8645809,64.41684 97.838059,63.4260188 L110.269891,50.7750989 C111.24337,49.7818844 111.24337,48.1783815 110.269891,47.1875603" id="Fill-8"></path>
                </g>
            </g>
        </g>
    </g>
</svg>